<mxfile host="Electron" agent="Mozilla/5.0 (Windows NT 10.0; Win64; x64) AppleWebKit/537.36 (KHTML, like Gecko) draw.io/24.7.17 Chrome/128.0.6613.36 Electron/32.0.1 Safari/537.36" version="24.7.17">
  <diagram name="Page-1" id="AXOEAntzJ9l8cwZtuv1Z">
    <mxGraphModel dx="1866" dy="1021" grid="0" gridSize="10" guides="1" tooltips="1" connect="1" arrows="1" fold="1" page="0" pageScale="1" pageWidth="4681" pageHeight="3300" math="0" shadow="0">
      <root>
        <mxCell id="0" />
        <mxCell id="1" parent="0" />
        <mxCell id="fimy9HsmC_1KmrTICAlq-24" value="Region" style="points=[[0,0],[0.25,0],[0.5,0],[0.75,0],[1,0],[1,0.25],[1,0.5],[1,0.75],[1,1],[0.75,1],[0.5,1],[0.25,1],[0,1],[0,0.75],[0,0.5],[0,0.25]];outlineConnect=0;gradientColor=none;html=1;whiteSpace=wrap;fontSize=12;fontStyle=0;container=1;pointerEvents=0;collapsible=0;recursiveResize=0;shape=mxgraph.aws4.group;grIcon=mxgraph.aws4.group_region;strokeColor=#00A4A6;fillColor=none;verticalAlign=top;align=left;spacingLeft=30;fontColor=#147EBA;dashed=1;strokeWidth=2;" vertex="1" parent="1">
          <mxGeometry x="200" y="-38.5" width="920" height="568.5" as="geometry" />
        </mxCell>
        <mxCell id="fimy9HsmC_1KmrTICAlq-1" value="AWS Management Console" style="sketch=0;outlineConnect=0;fontColor=#232F3E;gradientColor=none;strokeColor=#ffffff;fillColor=#990000;dashed=0;verticalLabelPosition=middle;verticalAlign=bottom;align=center;html=1;whiteSpace=wrap;fontSize=10;fontStyle=1;spacing=3;shape=mxgraph.aws4.productIcon;prIcon=mxgraph.aws4.management_console;" vertex="1" parent="1">
          <mxGeometry x="160" y="200" width="80" height="120" as="geometry" />
        </mxCell>
        <mxCell id="fimy9HsmC_1KmrTICAlq-2" value="&lt;span&gt;AWS Lambda&amp;nbsp;&lt;br&gt;Service&lt;/span&gt;" style="outlineConnect=0;dashed=0;verticalLabelPosition=bottom;verticalAlign=top;align=center;html=1;shape=mxgraph.aws3.lambda;fillColor=#F58534;gradientColor=none;fontStyle=1" vertex="1" parent="1">
          <mxGeometry x="440" y="190" width="76.5" height="93" as="geometry" />
        </mxCell>
        <mxCell id="fimy9HsmC_1KmrTICAlq-3" value="&lt;span&gt;Lambda Function&lt;/span&gt;" style="sketch=0;outlineConnect=0;fontColor=#232F3E;gradientColor=none;fillColor=#ED7100;strokeColor=none;dashed=0;verticalLabelPosition=bottom;verticalAlign=top;align=center;html=1;fontSize=12;fontStyle=1;aspect=fixed;pointerEvents=1;shape=mxgraph.aws4.lambda_function;" vertex="1" parent="1">
          <mxGeometry x="720" y="200" width="80" height="80" as="geometry" />
        </mxCell>
        <mxCell id="fimy9HsmC_1KmrTICAlq-4" value="&lt;span&gt;S3 Bucket&lt;/span&gt;" style="sketch=0;outlineConnect=0;fontColor=#232F3E;gradientColor=none;fillColor=#7AA116;strokeColor=none;dashed=0;verticalLabelPosition=bottom;verticalAlign=top;align=center;html=1;fontSize=12;fontStyle=1;aspect=fixed;pointerEvents=1;shape=mxgraph.aws4.bucket;" vertex="1" parent="1">
          <mxGeometry x="1000" y="200" width="75" height="78" as="geometry" />
        </mxCell>
        <mxCell id="fimy9HsmC_1KmrTICAlq-5" value="&lt;span&gt;IAM Role&lt;/span&gt;" style="sketch=0;outlineConnect=0;fontColor=#232F3E;gradientColor=none;fillColor=#DD344C;strokeColor=none;dashed=0;verticalLabelPosition=bottom;verticalAlign=top;align=center;html=1;fontSize=12;fontStyle=1;aspect=fixed;pointerEvents=1;shape=mxgraph.aws4.role;" vertex="1" parent="1">
          <mxGeometry x="704.28" y="7" width="95.72" height="54" as="geometry" />
        </mxCell>
        <mxCell id="fimy9HsmC_1KmrTICAlq-6" value="&lt;span&gt;Policy&lt;/span&gt;" style="verticalLabelPosition=bottom;sketch=0;html=1;verticalAlign=top;align=center;points=[[0.145,0.145,0],[0.5,0,0],[0.855,0.145,0],[1,0.5,0],[0.855,0.855,0],[0.5,1,0],[0.145,0.855,0],[0,0.5,0]];pointerEvents=1;shape=mxgraph.cisco_safe.compositeIcon;bgIcon=ellipse;resIcon=mxgraph.cisco_safe.capability.policy_configuration;fontStyle=1;strokeColor=#FF0000;fillColor=default;" vertex="1" parent="1">
          <mxGeometry x="500" y="-10" width="69.5" height="73" as="geometry" />
        </mxCell>
        <mxCell id="fimy9HsmC_1KmrTICAlq-7" value="&lt;span&gt;User&lt;/span&gt;" style="sketch=0;outlineConnect=0;fontColor=#232F3E;gradientColor=none;fillColor=#232F3D;strokeColor=none;dashed=0;verticalLabelPosition=bottom;verticalAlign=top;align=center;html=1;fontSize=12;fontStyle=1;aspect=fixed;pointerEvents=1;shape=mxgraph.aws4.user;" vertex="1" parent="1">
          <mxGeometry x="-160" y="197.5" width="78" height="78" as="geometry" />
        </mxCell>
        <mxCell id="fimy9HsmC_1KmrTICAlq-8" value="" style="endArrow=classic;html=1;rounded=0;entryX=-0.056;entryY=0.611;entryDx=0;entryDy=0;entryPerimeter=0;fontStyle=1" edge="1" parent="1" target="fimy9HsmC_1KmrTICAlq-5">
          <mxGeometry width="50" height="50" relative="1" as="geometry">
            <mxPoint x="580" y="40" as="sourcePoint" />
            <mxPoint x="630" y="-10" as="targetPoint" />
          </mxGeometry>
        </mxCell>
        <mxCell id="fimy9HsmC_1KmrTICAlq-9" value="" style="endArrow=classic;html=1;rounded=0;fontStyle=1" edge="1" parent="1">
          <mxGeometry width="50" height="50" relative="1" as="geometry">
            <mxPoint x="760" y="90" as="sourcePoint" />
            <mxPoint x="760" y="190" as="targetPoint" />
          </mxGeometry>
        </mxCell>
        <mxCell id="fimy9HsmC_1KmrTICAlq-10" value="" style="endArrow=classic;html=1;rounded=0;fontStyle=1" edge="1" parent="1">
          <mxGeometry width="50" height="50" relative="1" as="geometry">
            <mxPoint x="810" y="239.29" as="sourcePoint" />
            <mxPoint x="990" y="239" as="targetPoint" />
          </mxGeometry>
        </mxCell>
        <mxCell id="fimy9HsmC_1KmrTICAlq-30" value="&lt;b&gt;Create&lt;/b&gt;" style="edgeLabel;html=1;align=center;verticalAlign=middle;resizable=0;points=[];" vertex="1" connectable="0" parent="fimy9HsmC_1KmrTICAlq-10">
          <mxGeometry x="-0.0013" relative="1" as="geometry">
            <mxPoint as="offset" />
          </mxGeometry>
        </mxCell>
        <mxCell id="fimy9HsmC_1KmrTICAlq-11" value="" style="endArrow=classic;html=1;rounded=0;fontStyle=1" edge="1" parent="1">
          <mxGeometry width="50" height="50" relative="1" as="geometry">
            <mxPoint x="530" y="239.57999999999998" as="sourcePoint" />
            <mxPoint x="710" y="239.29" as="targetPoint" />
          </mxGeometry>
        </mxCell>
        <mxCell id="fimy9HsmC_1KmrTICAlq-29" value="&lt;b&gt;Login&lt;/b&gt;" style="edgeLabel;html=1;align=center;verticalAlign=middle;resizable=0;points=[];" vertex="1" connectable="0" parent="fimy9HsmC_1KmrTICAlq-11">
          <mxGeometry x="0.0118" y="-1" relative="1" as="geometry">
            <mxPoint as="offset" />
          </mxGeometry>
        </mxCell>
        <mxCell id="fimy9HsmC_1KmrTICAlq-12" value="" style="endArrow=classic;html=1;rounded=0;fontStyle=1" edge="1" parent="1">
          <mxGeometry width="50" height="50" relative="1" as="geometry">
            <mxPoint x="250" y="239.57999999999998" as="sourcePoint" />
            <mxPoint x="430" y="239.29" as="targetPoint" />
          </mxGeometry>
        </mxCell>
        <mxCell id="fimy9HsmC_1KmrTICAlq-13" value="" style="endArrow=classic;html=1;rounded=0;fontStyle=1" edge="1" parent="1">
          <mxGeometry width="50" height="50" relative="1" as="geometry">
            <mxPoint x="-70" y="239" as="sourcePoint" />
            <mxPoint x="150" y="239" as="targetPoint" />
          </mxGeometry>
        </mxCell>
        <mxCell id="fimy9HsmC_1KmrTICAlq-28" value="&lt;b&gt;Login&lt;/b&gt;" style="edgeLabel;html=1;align=center;verticalAlign=middle;resizable=0;points=[];" vertex="1" connectable="0" parent="fimy9HsmC_1KmrTICAlq-13">
          <mxGeometry x="-0.108" y="1" relative="1" as="geometry">
            <mxPoint as="offset" />
          </mxGeometry>
        </mxCell>
        <mxCell id="fimy9HsmC_1KmrTICAlq-15" value="&lt;font style=&quot;font-size: 20px;&quot;&gt;1&lt;/font&gt;" style="strokeWidth=2;html=1;shape=mxgraph.flowchart.start_2;whiteSpace=wrap;fontStyle=1;strokeColor=none;fillColor=#fa6800;fontColor=#000000;" vertex="1" parent="1">
          <mxGeometry y="160" width="40" height="40" as="geometry" />
        </mxCell>
        <mxCell id="fimy9HsmC_1KmrTICAlq-16" value="&lt;font style=&quot;font-size: 20px;&quot;&gt;2&lt;/font&gt;" style="strokeWidth=2;html=1;shape=mxgraph.flowchart.start_2;whiteSpace=wrap;fontStyle=1;strokeColor=none;fillColor=#f0a30a;fontColor=#000000;" vertex="1" parent="1">
          <mxGeometry x="320" y="160" width="40" height="40" as="geometry" />
        </mxCell>
        <mxCell id="fimy9HsmC_1KmrTICAlq-17" value="&lt;font style=&quot;font-size: 20px;&quot;&gt;3&lt;/font&gt;" style="strokeWidth=2;html=1;shape=mxgraph.flowchart.start_2;whiteSpace=wrap;fontStyle=1;strokeColor=none;fillColor=#0050ef;fontColor=#ffffff;" vertex="1" parent="1">
          <mxGeometry x="600" y="160" width="40" height="40" as="geometry" />
        </mxCell>
        <mxCell id="fimy9HsmC_1KmrTICAlq-18" value="&lt;font style=&quot;font-size: 20px;&quot;&gt;4&lt;/font&gt;" style="strokeWidth=2;html=1;shape=mxgraph.flowchart.start_2;whiteSpace=wrap;fontStyle=1;strokeColor=none;fillColor=#d80073;fontColor=#ffffff;" vertex="1" parent="1">
          <mxGeometry x="440" width="40" height="40" as="geometry" />
        </mxCell>
        <mxCell id="fimy9HsmC_1KmrTICAlq-19" value="&lt;font style=&quot;font-size: 20px;&quot;&gt;5&lt;/font&gt;" style="strokeWidth=2;html=1;shape=mxgraph.flowchart.start_2;whiteSpace=wrap;fontStyle=1;strokeColor=none;fillColor=#008a00;fontColor=#ffffff;" vertex="1" parent="1">
          <mxGeometry x="820" width="40" height="40" as="geometry" />
        </mxCell>
        <mxCell id="fimy9HsmC_1KmrTICAlq-20" value="&lt;font style=&quot;font-size: 20px;&quot;&gt;6&lt;/font&gt;" style="strokeWidth=2;html=1;shape=mxgraph.flowchart.start_2;whiteSpace=wrap;fontStyle=1;strokeColor=none;fillColor=#60a917;fontColor=#ffffff;" vertex="1" parent="1">
          <mxGeometry x="800" y="320" width="40" height="40" as="geometry" />
        </mxCell>
        <mxCell id="fimy9HsmC_1KmrTICAlq-21" value="&lt;b&gt;Code Boto3&lt;/b&gt;" style="sketch=0;outlineConnect=0;fontColor=#232F3E;gradientColor=none;fillColor=#232F3D;strokeColor=none;dashed=0;verticalLabelPosition=bottom;verticalAlign=top;align=center;html=1;fontSize=12;fontStyle=0;aspect=fixed;pointerEvents=1;shape=mxgraph.aws4.source_code;" vertex="1" parent="1">
          <mxGeometry x="731.5" y="400" width="57" height="78" as="geometry" />
        </mxCell>
        <mxCell id="fimy9HsmC_1KmrTICAlq-22" value="" style="endArrow=classic;html=1;rounded=0;" edge="1" parent="1">
          <mxGeometry width="50" height="50" relative="1" as="geometry">
            <mxPoint x="760" y="390" as="sourcePoint" />
            <mxPoint x="760" y="320" as="targetPoint" />
          </mxGeometry>
        </mxCell>
        <mxCell id="fimy9HsmC_1KmrTICAlq-23" value="&lt;font style=&quot;font-size: 20px;&quot;&gt;7&lt;/font&gt;" style="strokeWidth=2;html=1;shape=mxgraph.flowchart.start_2;whiteSpace=wrap;fontStyle=1;strokeColor=none;fillColor=#FF66FF;fontColor=#000000;" vertex="1" parent="1">
          <mxGeometry x="880" y="160" width="40" height="40" as="geometry" />
        </mxCell>
        <mxCell id="fimy9HsmC_1KmrTICAlq-25" value="&lt;span style=&quot;font-size: 14px;&quot;&gt;Website: gdt8.com&lt;/span&gt;" style="text;html=1;align=center;verticalAlign=middle;whiteSpace=wrap;rounded=0;fontSize=14;fontColor=#0000FF;labelBackgroundColor=default;textShadow=0;labelBorderColor=none;fontStyle=1" vertex="1" parent="1">
          <mxGeometry x="-157" y="-35" width="220" height="36" as="geometry" />
        </mxCell>
        <mxCell id="fimy9HsmC_1KmrTICAlq-26" value="&lt;span style=&quot;font-size: 14px;&quot;&gt;Courses: devops.gdt8.com&lt;/span&gt;" style="text;html=1;align=center;verticalAlign=middle;whiteSpace=wrap;rounded=0;fontSize=14;fontColor=#0000FF;labelBackgroundColor=default;textShadow=0;labelBorderColor=none;fontStyle=1" vertex="1" parent="1">
          <mxGeometry x="-157" y="1" width="220" height="33" as="geometry" />
        </mxCell>
        <mxCell id="fimy9HsmC_1KmrTICAlq-27" value="&lt;span style=&quot;font-size: 14px;&quot;&gt;Channel: youtube/@gdt8&lt;/span&gt;" style="text;html=1;align=center;verticalAlign=middle;whiteSpace=wrap;rounded=0;fontSize=14;fontColor=#0000FF;labelBackgroundColor=default;textShadow=0;labelBorderColor=none;fontStyle=1" vertex="1" parent="1">
          <mxGeometry x="-157" y="34" width="220" height="36" as="geometry" />
        </mxCell>
      </root>
    </mxGraphModel>
  </diagram>
</mxfile>
